<?xml version="1.0" encoding="iso-8859-1"?>
<!-- Uploaded to: SVG Repo, www.svgrepo.com, Generator: SVG Repo Mixer Tools -->
<svg version="1.1" id="Layer_1" xmlns="http://www.w3.org/2000/svg" xmlns:xlink="http://www.w3.org/1999/xlink" 
	 viewBox="0 0 512.008 512.008" xml:space="preserve">
<rect x="422.118" y="135.68" style="fill:#ECB593;" width="30.746" height="88.592"/>
<rect x="392.76" y="6.349" style="fill:#FFB655;" width="42.155" height="30.979"/>
<rect x="379.489" y="157.835" style="fill:#ECB593;" width="73.371" height="66.447"/>
<path style="fill:#ACAAB1;" d="M302.366,140.194c-4.275,0-7.74-3.465-7.74-7.74v-19.936c0-53.507-43.531-97.04-97.04-97.04
	s-97.04,43.532-97.04,97.041v19.936c0,4.274-3.464,7.74-7.74,7.74c-4.275,0-7.74-3.465-7.74-7.74V112.52
	C85.068,50.476,135.543,0,197.586,0s112.519,50.476,112.519,112.52v19.936C310.105,136.73,306.641,140.194,302.366,140.194z"/>
<g>
	<rect x="174.308" y="264.332" style="fill:#FFD0AD;" width="49.915" height="45.405"/>
	<path style="fill:#FFD0AD;" d="M116.95,207.763v-96.389c0-34.579,28.033-62.612,62.612-62.612h37.757
		c34.579,0,62.612,28.033,62.612,62.612v96.389c0,37.665-30.533,68.198-68.198,68.198h-26.585
		C147.484,275.961,116.95,245.428,116.95,207.763z"/>
</g>
<path style="fill:#ECB593;" d="M217.319,48.762h-31.662c34.579,0,62.612,28.033,62.612,62.612v96.389
	c0,36.813-29.173,66.797-65.659,68.134c0.844,0.031,1.687,0.064,2.539,0.064h26.585c37.665,0,68.198-30.533,68.198-68.198v-96.389
	C279.931,76.795,251.9,48.762,217.319,48.762z"/>
<g>
	<path style="fill:#D84C4C;" d="M96.73,209.332c-20.758,0-37.585-16.828-37.585-37.585s16.828-37.585,37.585-37.585h20.221v75.171
		H96.73z"/>
	<path style="fill:#D84C4C;" d="M300.152,134.161c20.758,0,37.585,16.828,37.585,37.585s-16.828,37.585-37.585,37.585h-20.221
		v-75.171H300.152z"/>
</g>
<g>
	<circle style="fill:#844235;" cx="164.68" cy="166.886" r="9.631"/>
	<circle style="fill:#844235;" cx="229.156" cy="166.886" r="9.631"/>
</g>
<path style="fill:#73AFD6;" d="M283.355,512V353.428h123.65c15.637,0,28.312-12.676,28.312-28.312V224.278h-55.831v70.839H99.307
	c-20.995,0-38.014,17.02-38.014,38.014v178.869h222.061V512z"/>
<path style="fill:#FFFFFF;" d="M217.314,202.135c2.291,0,4.026,2.106,3.554,4.349c-2.003,9.521-10.45,16.669-20.567,16.669
	s-18.564-7.148-20.567-16.669c-0.472-2.241,1.263-4.349,3.554-4.349H217.314z"/>
<rect x="174.308" y="295.115" style="fill:#D3EFFD;" width="49.915" height="216.883"/>
<path style="fill:#F7B737;" d="M188.571,112.312l28.463,15.323c6.354,3.421,14.259,0.336,16.617-6.484l0,0
	c1.861-5.382,7.324-8.645,12.944-7.731l33.335,5.414v-7.46c0-34.579-28.033-62.612-62.612-62.612h-37.757
	c-34.579,0-62.612,28.033-62.612,62.612v0.467l20.328,16.821c3.951,3.27,9.571,3.587,13.866,0.784l25.475-16.63
	C180.211,110.473,184.795,110.279,188.571,112.312z"/>
<g>
	<path style="fill:#9B3737;" d="M93.385,217.072c-4.275,0-7.74-3.465-7.74-7.74v-73.104c0-4.274,3.464-7.74,7.74-7.74
		s7.74,3.465,7.74,7.74v73.104C101.125,213.607,97.659,217.072,93.385,217.072z"/>
	<path style="fill:#9B3737;" d="M302.904,217.072c-4.275,0-7.74-3.465-7.74-7.74v-73.104c0-4.274,3.464-7.74,7.74-7.74
		c4.275,0,7.74,3.465,7.74,7.74v73.104C310.644,213.607,307.179,217.072,302.904,217.072z"/>
</g>
<rect x="392.76" y="6.349" style="fill:#F7B737;" width="42.155" height="102.1"/>
<rect x="374.814" y="108.447" style="fill:#73AFD6;" width="78.046" height="27.236"/>
<rect x="398.786" y="135.68" style="fill:#174F79;" width="30.102" height="37.097"/>
<polygon style="fill:#FFD0AD;" points="405.63,184.318 422.114,184.318 422.114,157.838 379.486,157.838 379.486,224.893 "/>
<g>
	<rect x="61.29" y="383.82" style="fill:#D3EFFD;" width="52.897" height="31.668"/>
	<rect x="308.832" y="295.115" style="fill:#D3EFFD;" width="31.668" height="58.315"/>
</g>
<g>
	<rect x="174.308" y="330.479" style="fill:#174F79;" width="49.915" height="36.644"/>
	<rect x="143.35" y="403.768" style="fill:#174F79;" width="111.966" height="36.644"/>
	<rect x="143.226" y="403.768" style="fill:#174F79;" width="31.092" height="108.24"/>
	<rect x="224.223" y="403.768" style="fill:#174F79;" width="31.092" height="108.24"/>
	<path style="fill:#174F79;" d="M106.448,512V369.993c0-4.274,3.464-7.74,7.74-7.74s7.74,3.465,7.74,7.74V512L106.448,512
		L106.448,512z"/>
</g>
</svg>